<svg xmlns="http://www.w3.org/2000/svg" xmlns:xlink="http://www.w3.org/1999/xlink" width="803.079" height="170.149" viewBox="0 0 803.079 170.149">
  <defs>
    <linearGradient id="linear-gradient" x1="0.5" x2="0.5" y2="1" gradientUnits="objectBoundingBox">
      <stop offset="0" stop-color="#cc6634"/>
      <stop offset="1" stop-color="#9f481b"/>
    </linearGradient>
    <linearGradient id="linear-gradient-2" x1="0.496" x2="0.496" y2="0.999" gradientUnits="objectBoundingBox">
      <stop offset="0" stop-color="#136bab"/>
      <stop offset="1" stop-color="#004671"/>
    </linearGradient>
    <linearGradient id="linear-gradient-3" x1="0.499" x2="0.499" y2="1" gradientUnits="objectBoundingBox">
      <stop offset="0" stop-color="#1a65aa"/>
      <stop offset="1" stop-color="#003868"/>
    </linearGradient>
  </defs>
  <g id="Ativo_4" data-name="Ativo 4" transform="translate(-843 -2914)">
    <g id="Camada_1" data-name="Camada 1" transform="translate(843.014 2913.998)">
      <path id="Caminho_669" data-name="Caminho 669" d="M123.57,31.68h48.572V42.6L140.084,69.368h33.465V81.342l-52.3.416V71.251L154.3,43.1,123.57,43Z" transform="translate(119.145 31.124)" fill="#040006"/>
      <path id="Caminho_670" data-name="Caminho 670" d="M233.07,31.53h48.572v10.9L249.584,69.2h33.465V81.172l-52.3.416V71.1L263.8,42.93,233.07,42.85Z" transform="translate(226.732 30.976)" fill="#040006"/>
      <path id="Caminho_671" data-name="Caminho 671" d="M203.833,66.008,193.4,65.889c0,3.093-3.965,4.2-3.965,4.2h-24.4c-7.316,0-6.185-8.545-6.185-8.545h44.984s-.139-6.562,0-16.97a12.946,12.946,0,0,0-9.159-12.886H157.481c-8.683,0-8.921,9.913-8.921,9.913V69.358c0,11.4,12.767,12.391,12.767,12.391s20.816.119,32.077,0S203.833,66.008,203.833,66.008ZM163.31,43.585h25.515c6.067,0,5.075,8.049,5.075,8.049H159.345C159.345,43.942,163.31,43.585,163.31,43.585Z" transform="translate(145.978 31.134)" fill="#040006"/>
      <path id="Caminho_672" data-name="Caminho 672" d="M313.483,65.838l-10.408-.119c0,3.093-3.965,4.2-3.965,4.2H274.7c-7.315,0-6.205-8.545-6.205-8.545h44.984s-.119-6.562,0-16.97a12.966,12.966,0,0,0-9.159-12.886H267.151c-8.683,0-8.921,9.913-8.921,9.913V69.188c0,11.4,12.748,12.391,12.748,12.391s20.816.119,32.1,0S313.483,65.838,313.483,65.838ZM272.96,43.415H298.5c6.067,0,5.075,8.049,5.075,8.049H269C269,43.772,272.96,43.415,272.96,43.415Z" transform="translate(253.732 30.967)" fill="#040006"/>
      <path id="Caminho_673" data-name="Caminho 673" d="M288.47,81.115v-38.9s3.093-10.666,12.767-10.527,27.26,0,27.26,0v10.9l-22.938-.634s-6.681-.357-6.562,8.8,0,30.352,0,30.352Z" transform="translate(283.443 31.133)" fill="#040006"/>
      <path id="Caminho_674" data-name="Caminho 674" d="M179.27,81.115v-38.9s3.093-10.666,12.748-10.527,27.26,0,27.26,0v10.9l-22.918-.634s-6.681-.357-6.562,8.8,0,30.352,0,30.352Z" transform="translate(176.151 31.133)" fill="#040006"/>
      <path id="Caminho_675" data-name="Caminho 675" d="M365.136,43.931A12.47,12.47,0,0,0,355.58,31.54c-7.395-.317-34.555,0-34.555,0-6.6-.139-10.785,7.553-10.785,10.646V71.448c0,8.168,9.655,10.527,9.655,10.527s26.526-.238,34.456,0,10.785-10.408,10.785-10.408S365,52.118,365.136,43.931Zm-10.785,20.38c0,4.461-4.956,4.956-4.956,4.956s-17.6-.258-22.561,0a5.115,5.115,0,0,1-5.69-3.965s-.258-10.17,0-17.109,4.956-6.067,4.956-6.067h22.878c5.452,0,5.373,5.729,5.373,5.729Z" transform="translate(304.833 30.848)" fill="#040006"/>
      <path id="Caminho_676" data-name="Caminho 676" d="M255.917,43.931A12.47,12.47,0,0,0,246.48,31.54c-7.395-.317-34.555,0-34.555,0-6.622-.139-10.8,7.553-10.8,10.646V71.448c0,8.168,9.675,10.527,9.675,10.527s26.506-.238,34.436,0,10.785-10.408,10.785-10.408S255.8,52.118,255.917,43.931Zm-10.785,20.38c0,4.461-4.956,4.956-4.956,4.956s-17.585-.258-22.541,0a5.155,5.155,0,0,1-5.71-3.965s-.238-10.17,0-17.109,4.956-6.067,4.956-6.067h22.878c5.452,0,5.373,5.729,5.373,5.729Z" transform="translate(197.62 30.848)" fill="#040006"/>
      <ellipse id="Elipse_80" data-name="Elipse 80" cx="6.879" cy="7.494" rx="6.879" ry="7.494" transform="translate(674.43 98.489)" fill="#040006"/>
      <path id="Caminho_677" data-name="Caminho 677" d="M405.033,43.326s-3.727-12.034-11.9-11.9-41.137,0-41.137,0V98.6h11.4V81.945h31.72a19.568,19.568,0,0,0,9.913-16.97C405.27,52.743,405.033,43.326,405.033,43.326ZM390.4,69.475c-5.075.119-23.533,0-23.533,0a4.3,4.3,0,0,1-3.648-4.084v-18.1s-.852-3.707,5.829-3.826,20.935,0,20.935,0a6.047,6.047,0,0,1,4.461,5.729c.139,4.679,0,15.86,0,15.86S395.477,69.356,390.4,69.475Z" transform="translate(345.863 30.878)" fill="#040006"/>
      <path id="Caminho_678" data-name="Caminho 678" d="M381.5,24.93V75.921s3.469,12.629,13.382,12.411,22.3,0,22.3,0,10.646-5.234,10.9-12.629a100.8,100.8,0,0,0,0-10.131h-10.9S419.9,75.6,410.742,75.921a111.662,111.662,0,0,1-12.391,0s-6.205,1.071-6.205-7.613-.159-19.409-.159-19.409h19.25V38.649H391.651V24.93Z" transform="translate(374.848 24.492)" fill="#040006"/>
      <path id="Caminho_679" data-name="Caminho 679" d="M108.3,83.64a55.511,55.511,0,0,1,41.534-53.707A85.07,85.07,0,1,0,151.816,137.8,55.511,55.511,0,0,1,108.3,83.64Z" transform="translate(0 0)" fill="url(#linear-gradient)"/>
      <path id="Caminho_680" data-name="Caminho 680" d="M89.478,14.211A55.709,55.709,0,0,0,75.6,15.975a84.971,84.971,0,0,1,1.982,107.869,55.511,55.511,0,1,0,11.9-109.634Z" transform="translate(74.293 13.958)" fill="url(#linear-gradient-2)"/>
      <path id="Caminho_681" data-name="Caminho 681" d="M96.1,15.1a55.511,55.511,0,0,0,1.983,107.869A84.971,84.971,0,0,0,96.1,15.1Z" transform="translate(53.733 14.834)" fill="url(#linear-gradient-3)"/>
      <path id="Caminho_682" data-name="Caminho 682" d="M122.29,30.9h48.572V41.8L138.8,68.568h33.445V80.562l-52.279.4V70.471L153.019,42.3,122.29,42.22Z" transform="translate(117.888 30.357)" fill="#fff"/>
      <path id="Caminho_683" data-name="Caminho 683" d="M231.79,30.75h48.572v10.9L248.3,68.418h33.445V80.392l-52.279.416V70.321L262.519,42.15,231.79,42.07Z" transform="translate(225.474 30.21)" fill="#fff"/>
      <path id="Caminho_684" data-name="Caminho 684" d="M202.533,65.237,192.125,65.1c0,3.113-3.965,4.223-3.965,4.223h-24.4c-7.316,0-6.185-8.545-6.185-8.545h44.964s-.119-6.582,0-16.99A12.946,12.946,0,0,0,193.374,30.9H156.2c-8.683,0-8.921,9.913-8.921,9.913V68.568c0,11.4,12.767,12.391,12.767,12.391s20.817.139,32.077,0S202.533,65.237,202.533,65.237ZM162.03,42.8h25.515c6.067,0,5.075,8.069,5.075,8.069H158.065C158.065,43.172,162.03,42.8,162.03,42.8Z" transform="translate(144.72 30.357)" fill="#fff"/>
      <path id="Caminho_685" data-name="Caminho 685" d="M312.2,65.048l-10.408-.1c0,3.113-3.965,4.223-3.965,4.223h-24.4c-7.316,0-6.205-8.545-6.205-8.545H312.2s-.119-6.582,0-16.99a12.966,12.966,0,0,0-9.159-12.886H265.871c-8.684,0-8.921,9.913-8.921,9.913V68.418c0,11.4,12.748,12.391,12.748,12.391s20.817.139,32.1,0S312.2,65.048,312.2,65.048ZM271.68,42.606h25.535c6.067,0,5.075,8.069,5.075,8.069H267.715C267.715,42.982,271.68,42.606,271.68,42.606Z" transform="translate(252.474 30.21)" fill="#fff"/>
      <path id="Caminho_686" data-name="Caminho 686" d="M287.19,80.345v-38.9s3.093-10.666,12.748-10.547,27.26,0,27.26,0V41.8l-22.918-.615s-6.681-.377-6.562,8.8,0,30.352,0,30.352Z" transform="translate(282.186 30.357)" fill="#fff"/>
      <path id="Caminho_687" data-name="Caminho 687" d="M178,80.345v-38.9s3.113-10.666,12.767-10.547,27.26,0,27.26,0V41.8l-22.918-.615s-6.7-.377-6.562,8.8,0,30.352,0,30.352Z" transform="translate(174.904 30.357)" fill="#fff"/>
      <path id="Caminho_688" data-name="Caminho 688" d="M363.856,43.155A12.47,12.47,0,0,0,354.3,30.764c-7.395-.337-34.555,0-34.555,0-6.6-.139-10.785,7.553-10.785,10.646V70.672c0,8.168,9.655,10.527,9.655,10.527s26.526-.258,34.456,0,10.785-10.408,10.785-10.408S363.717,51.343,363.856,43.155Zm-10.785,20.44c0,4.461-4.956,4.976-4.956,4.976s-17.6-.258-22.561,0a5.115,5.115,0,0,1-5.69-3.965s-.258-10.151,0-17.089,4.956-6.067,4.956-6.067H347.7c5.452,0,5.373,5.729,5.373,5.729Z" transform="translate(303.575 30.077)" fill="#fff"/>
      <path id="Caminho_689" data-name="Caminho 689" d="M254.686,43.155a12.47,12.47,0,0,0-9.536-12.391c-7.395-.337-34.555,0-34.555,0-6.622-.139-10.8,7.553-10.8,10.646V70.672c0,8.168,9.675,10.527,9.675,10.527s26.427-.258,34.357,0,10.785-10.408,10.785-10.408S254.567,51.343,254.686,43.155Zm-10.864,20.44c0,4.461-4.956,4.976-4.956,4.976s-17.585-.258-22.541,0a5.135,5.135,0,0,1-5.71-3.965s-.238-10.151,0-17.089,4.956-6.067,4.956-6.067h22.878c5.452,0,5.373,5.729,5.373,5.729Z" transform="translate(196.313 30.077)" fill="#fff"/>
      <ellipse id="Elipse_81" data-name="Elipse 81" cx="6.879" cy="7.494" rx="6.879" ry="7.494" transform="translate(671.892 96.943)" fill="#fff"/>
      <path id="Caminho_690" data-name="Caminho 690" d="M403.743,42.546s-3.707-12.034-11.9-11.9-41.137,0-41.137,0V97.819h11.4V81.165h31.72a19.528,19.528,0,0,0,9.913-16.97C404,51.963,403.743,42.546,403.743,42.546ZM389.131,68.7c-5.075.119-23.552,0-23.552,0a4.282,4.282,0,0,1-3.628-4.084v-18.1s-.872-3.707,5.829-3.846,20.935,0,20.935,0a6.086,6.086,0,0,1,4.461,5.749c.119,4.659,0,15.86,0,15.86S394.207,68.576,389.131,68.7Z" transform="translate(344.596 30.111)" fill="#fff"/>
      <path id="Caminho_691" data-name="Caminho 691" d="M380.21,24.15V75.141s3.549,12.629,13.461,12.411,22.3,0,22.3,0,10.666-5.234,10.9-12.629a93.021,93.021,0,0,0,0-10.131h-10.9s2.736,10.032-6.443,10.349a111.855,111.855,0,0,1-12.391,0s-6.186,1.071-6.186-7.613S390.8,48.1,390.8,48.1h19.231V37.869H390.46V24.15Z" transform="translate(373.58 23.725)" fill="#fff"/>
    </g>
  </g>
</svg>
