<svg xmlns="http://www.w3.org/2000/svg" width="375.393" height="325.71" viewBox="0 0 375.393 325.71">
  <path id="Caminho_729" data-name="Caminho 729" d="M6658.9,6716.007s11.563,6.577,18.222,7.109c30.263,2.421,78.683-36.315,102.893-32.684,23.8,3.57,84.047-53.293,151.033-53.343,55.464-.041,102.626,21.735,102.626,21.735l.278,56.72s-50.818,48.215-49.363,65.676c1.922,23.067,49.611,92.1,49.611,92.1l-.024,62.291s-17.323,16.1-33.986,16.09c-35.228-.016-39.12-25.345-88.231-26.429s-76.511,38-119.839,37.525-75.132-55.725-105.436-55.174c-12.273.223-27.876,1.884-27.876,1.884Z" transform="translate(-6658.803 -6637.089)" fill="#e1ae2c" opacity="0.15"/>
</svg>
