<svg xmlns="http://www.w3.org/2000/svg" width="1631.112" height="747.24" viewBox="0 0 1631.112 747.24">
  <path id="Caminho_724" data-name="Caminho 724" d="M4705.427,5446.905c20.709-82.883,53.649-124.034,261.935-109.612s265.09-40.383,334.519-57.69,201.974-72.113,261.934-34.615,0,86.536,138.857,124.035,315.583-112.5,375.544-124.035,148.566-19.969,189.835,34.615-124.534,244.3-58.262,316.41,124.049,90.308,114.582,159.536-154.636,34.614-246.155,72.113-170.379,128.83-301.094,137.364-237.155-10.241-321.186-22.188-199.807,25.6-293.175,35.843-137.869-94.66-248.645-151.019-201.051-123.779-208.689-188.638S4684.717,5529.788,4705.427,5446.905Z" transform="translate(-4694.28 -5232.14)" fill="#3480e3" opacity="0.15"/>
</svg>
