<svg xmlns="http://www.w3.org/2000/svg" width="1634.904" height="1259.456" viewBox="0 0 1634.904 1259.456">
  <path id="Caminho_731" data-name="Caminho 731" d="M7890.354,3558.433c21.378-58.3,177.918,3.982,297.925-31.485s71.475-58.328,213.345-138.009,299.527,87.288,350.057,169.494,28.422,127.682,123.8,218.635,251.247-4.922,231.759,126.247-138.276,146.612-52.377,235.039,275.384,237.488,267.8,310.755-103.585,161.694-184.432,146.535-262.752-136.429-351.179-146.535-295.6,131.376-351.18,146.535-285.491,63.162-361.285,0-159.167-133.9-262.752-136.429-125.281-155.764-123.786-335.158,150.047-109.787,289-205.793-18.682-126.037-56.579-186.672S7868.976,3616.736,7890.354,3558.433Z" transform="translate(-7687.98 -3367.942)" fill="#481c51" opacity="0.15"/>
</svg>
