<svg xmlns="http://www.w3.org/2000/svg" width="153.678" height="174.022" viewBox="0 0 153.678 174.022">
  <g id="Ativo_9" data-name="Ativo 9" transform="translate(-1305 -1312)">
    <g id="Camada_1" data-name="Camada 1" transform="translate(1305 1312)">
      <path id="Caminho_707" data-name="Caminho 707" d="M6.806,174.022H146.891a6.806,6.806,0,0,0,6.787-6.806V6.806A6.787,6.787,0,0,0,146.891,0H6.806A6.787,6.787,0,0,0,0,6.806V167.217a6.806,6.806,0,0,0,6.806,6.806Zm53.751-9.148H56.44a6.806,6.806,0,0,1-6.787-6.806h0a6.787,6.787,0,0,1,6.787-6.787h4.116a6.806,6.806,0,0,1,6.806,6.787h0a6.824,6.824,0,0,1-6.806,6.824Zm36.993,0h-4.1a6.806,6.806,0,0,1-6.806-6.806h0a6.787,6.787,0,0,1,6.806-6.787h4.1a6.787,6.787,0,0,1,6.733,6.806h0a6.806,6.806,0,0,1-6.733,6.806Zm37.011,0h-4.116a6.824,6.824,0,0,1-6.806-6.806h0a6.806,6.806,0,0,1,6.806-6.769h4.116a6.787,6.787,0,0,1,6.787,6.787h0a6.806,6.806,0,0,1-6.787,6.806ZM130.133,9.367h4.1a6.787,6.787,0,0,1,6.806,6.733h0a6.787,6.787,0,0,1-6.806,6.806h-4.1a6.787,6.787,0,0,1-6.806-6.806h0a6.787,6.787,0,0,1,6.806-6.787Zm-37.011,0h4.116a6.806,6.806,0,0,1,6.806,6.733h0a6.806,6.806,0,0,1-6.806,6.806H93.122A6.787,6.787,0,0,1,86.334,16.1h0a6.787,6.787,0,0,1,6.787-6.787Zm-36.59,0h4.025A6.806,6.806,0,0,1,67.362,16.1h0a6.806,6.806,0,0,1-6.806,6.806H56.44A6.787,6.787,0,0,1,49.653,16.1h0A6.787,6.787,0,0,1,56.44,9.312Zm-36.993,0h4.116a6.787,6.787,0,0,1,6.7,6.733h0a6.787,6.787,0,0,1-6.787,6.806H19.448A6.806,6.806,0,0,1,12.642,16.1h0a6.806,6.806,0,0,1,6.806-6.787Zm0,22.777H134.231a6.806,6.806,0,0,1,6.806,6.806v96.433a6.787,6.787,0,0,1-6.806,6.806H19.448a6.806,6.806,0,0,1-6.806-6.806V38.9a6.824,6.824,0,0,1,6.806-6.806Zm0,118.918h4.116a6.806,6.806,0,0,1,6.787,6.806h0a6.806,6.806,0,0,1-6.879,6.787H19.448a6.824,6.824,0,0,1-6.806-6.806h0a6.824,6.824,0,0,1,6.806-6.879Z" transform="translate(0 0)" fill="#4e215a"/>
      <path id="Caminho_708" data-name="Caminho 708" d="M21.756,84.5,82,84.334A3.183,3.183,0,0,0,84.691,82.8l18.862-20.838h0l.7-.75a3.165,3.165,0,0,0,.8-2.2,3.238,3.238,0,0,0-.823-2.2l-.677-.75h0l-18.99-20.8A3.2,3.2,0,0,0,81.8,33.73h0l-30.223.091H21.28a2.781,2.781,0,0,0-1.482.567h0A3.513,3.513,0,0,0,18.28,36.95v.714a2.8,2.8,0,0,0,.183.915,3.476,3.476,0,0,0,.768,1.39L35.7,57.989a1.61,1.61,0,0,1,0,2.122L19.744,77.51l-.11.11a4.171,4.171,0,0,0-1.262,2.927V80.8h0a3.439,3.439,0,0,0,3.275,3.659h.091ZM43.381,62.087l.7-.75a3.366,3.366,0,0,0,0-4.391l-.7-.768h0L32.093,43.92a1.665,1.665,0,0,1,1.043-2.8H48.558A3.842,3.842,0,0,1,51.394,42.4L63.03,55.117a3.037,3.037,0,0,0,4.555,0l.11-.128a3.805,3.805,0,0,0,0-5.013l-6.147-6.7a1.3,1.3,0,0,1,.8-2.177H78.818a3.659,3.659,0,0,1,2.708,1.226l13.666,14.91a2.781,2.781,0,0,1,0,3.659l-13.575,15a3.659,3.659,0,0,1-2.708,1.244H62.444a1.281,1.281,0,0,1-.768-2.177l6.092-6.733a3.805,3.805,0,0,0,0-5.013l-.128-.128a3.019,3.019,0,0,0-4.555,0L51.522,75.9a3.769,3.769,0,0,1-2.836,1.3h-15.4a1.647,1.647,0,0,1-1.1-2.726l11.2-12.349Z" transform="translate(15.163 27.979)" fill="#d8a934" stroke="#d8a934" stroke-miterlimit="10" stroke-width="1"/>
    </g>
  </g>
</svg>
