<svg xmlns="http://www.w3.org/2000/svg" width="201.91" height="173" viewBox="0 0 201.91 173">
  <g id="Ativo_7" data-name="Ativo 7" transform="translate(0.001 0.001)">
    <g id="Camada_1" data-name="Camada 1">
      <path id="Caminho_713" data-name="Caminho 713" d="M20.38,105.877h136.8a3.979,3.979,0,0,0,4.207-4.207V12.86a3.979,3.979,0,0,0-4.207-4.207H20.38a3.979,3.979,0,0,0-4.207,4.207v88.811A4.522,4.522,0,0,0,20.38,105.877Zm4.259-88.811H152.974v80.4H24.639Z" transform="translate(12.17 6.509)" fill="#4e215a"/>
      <path id="Caminho_714" data-name="Caminho 714" d="M200.549,154.469l-11.778-26.94a11.638,11.638,0,0,0-4.627-5.469,11.743,11.743,0,0,0,2.524-7.572V13.462A13.286,13.286,0,0,0,173.189,0H28.4A13.549,13.549,0,0,0,14.934,13.462V114.069a11.743,11.743,0,0,0,2.594,7.572,14.653,14.653,0,0,0-4.627,5.469L1.035,154.049a14.758,14.758,0,0,0,.841,12.637A13.829,13.829,0,0,0,13.252,173h175.1a12.848,12.848,0,0,0,11.358-6.31,11.551,11.551,0,0,0,.841-12.217ZM23.347,13.462A4.855,4.855,0,0,1,28.4,8.414H173.189a4.855,4.855,0,0,1,5.048,5.048V114.069a4.855,4.855,0,0,1-5.048,5.118H28.4a4.855,4.855,0,0,1-5.048-5.048ZM192.557,162.444a5.258,5.258,0,0,1-4.207,2.1H13.252a4.627,4.627,0,0,1-4.207-2.524,4.627,4.627,0,0,1-.421-4.645L20.4,130.457a5.679,5.679,0,0,1,4.627-2.962h151.1a5.258,5.258,0,0,1,4.645,2.962l11.778,26.922a4.4,4.4,0,0,1,0,5.1Z" transform="translate(0)" fill="#4e215a"/>
      <path id="Caminho_715" data-name="Caminho 715" d="M80.765,80.91h-25.8a9.535,9.535,0,0,0-8.483,5.258,20.244,20.244,0,0,0-2.419,6.222A3.979,3.979,0,0,0,48.27,96.6H86.988A4,4,0,0,0,91.282,92.3a20.087,20.087,0,0,0-1.6-5.381A9.535,9.535,0,0,0,80.765,80.91Z" transform="translate(33.164 60.905)" fill="#4e215a"/>
      <path id="Caminho_716" data-name="Caminho 716" d="M83.808,79.06,83.7,35.241A2.314,2.314,0,0,0,82.563,33.3L67.49,19.467h0l-.561-.491a2.349,2.349,0,0,0-1.595-.6,2.436,2.436,0,0,0-1.6.6l-.543.508h0L48.122,33.3A2.331,2.331,0,0,0,47,35.241h0V57.221h0V79.288a2.016,2.016,0,0,0,.421,1.087h0a2.577,2.577,0,0,0,1.875,1.1H49.8a3.226,3.226,0,0,0,.666-.14,2.647,2.647,0,0,0,1.017-.561L64.6,68.771a1.174,1.174,0,0,1,1.542,0L78.777,80.392h0a3.12,3.12,0,0,0,2.138.929h.175a2.506,2.506,0,0,0,2.717-2.261ZM67.525,63.285l-.561-.508a2.4,2.4,0,0,0-3.19,0l-.561.508h0l-8.851,8.15a1.209,1.209,0,0,1-2.1-.754V59.464a2.769,2.769,0,0,1,.929-2.051l9.237-8.466a2.208,2.208,0,0,0,0-3.313h-.105a2.752,2.752,0,0,0-3.646,0L53.8,50.087a.929.929,0,0,1-1.577-.578V37.5a2.682,2.682,0,0,1,.894-1.981L63.966,25.6a2.051,2.051,0,0,1,2.7,0l10.9,9.885a2.7,2.7,0,0,1,.982,1.875V49.368a.929.929,0,0,1-1.56.6l-4.908-4.452a2.787,2.787,0,0,0-3.646,0l-.088.088a2.208,2.208,0,0,0,0,3.313l9.29,8.413a2.787,2.787,0,0,1,.911,2.068V70.612a1.209,1.209,0,0,1-2.033.771l-8.9-8.1Z" transform="translate(35.38 13.836)" fill="#d8a934" stroke="#d8a934" stroke-miterlimit="10" stroke-width="1"/>
    </g>
  </g>
</svg>
