<svg xmlns="http://www.w3.org/2000/svg" width="1630.295" height="828.342" viewBox="0 0 1630.295 828.342">
  <path id="Caminho_723" data-name="Caminho 723" d="M5048.616,7034.056c69.881,18.055,287.455,137.506,462.969,66.765s126.463-157.022,276.5-164.433,212.427,194.751,250.038,321.074,273.3-32.842,265.781,164.223-294.594,198.863-371.086,204.644S5729.39,7747,5622.3,7760.487s-221.825-121.393-309.791-88.636-169.5,128.8-314.93,78.272-88.561-149.566-145.93-186.177-84.14,40.464-126.211-32.757,32.509-163.785,22.947-223.518-111.5-66.623-60.281-182.213S4974.037,7014.787,5048.616,7034.056Z" transform="translate(-4673.789 -6936.189)" fill="#c13d7a" opacity="0.15"/>
</svg>
