<svg xmlns="http://www.w3.org/2000/svg" width="138.03" height="173.052" viewBox="0 0 138.03 173.052">
  <g id="Ativo_8" data-name="Ativo 8" transform="translate(-891 -1314.218)">
    <g id="Camada_1" data-name="Camada 1" transform="translate(892 1314.593)">
      <path id="Caminho_709" data-name="Caminho 709" d="M22.191,114.408H11.36A10.377,10.377,0,0,1,1,104.048V85.6A10.377,10.377,0,0,1,11.36,75.24H22.191A10.377,10.377,0,0,1,32.551,85.6v18.448a10.377,10.377,0,0,1-10.36,10.36ZM11.36,80.9a4.717,4.717,0,0,0-4.717,4.7v18.448a4.717,4.717,0,0,0,4.717,4.717H22.191a4.717,4.717,0,0,0,4.7-4.717V85.6a4.717,4.717,0,0,0-4.7-4.7Z" transform="translate(-1 55.557)" fill="#54215e" stroke="#511f5a" stroke-miterlimit="10" stroke-width="2"/>
      <path id="Caminho_710" data-name="Caminho 710" d="M74.669,116.829a42.368,42.368,0,0,1-5.049-.454l-2.8-.349-39.971-2.813a11.058,11.058,0,0,1-10.272-10.482l-.646-15.6a11.39,11.39,0,0,1,8.63-11.6,19.217,19.217,0,0,1,4-.839h.611c.577,0,1.572-.175,3.494-.349,3.6-.314,7.145.821,12.526,2.533l2.62.821a117.134,117.134,0,0,0,19.217,3.494h.926a3.177,3.177,0,0,1,.577,0c1.118,0,6.761.786,9.888,1.258a5.625,5.625,0,0,1,4.8,5.835v.087a11.268,11.268,0,0,1-1,4.28c3.616-1.992,10.936-6.656,15.723-9.678,5.538-3.494,9.014-5.7,10.482-6.411,4.909-2.463,7.809-.542,10.36,1.17h0a6.481,6.481,0,0,1,2.76,4.385,9.766,9.766,0,0,1-1.328,6.988c-7.075,9.958-32.546,23.375-36.966,25.419A19.042,19.042,0,0,1,74.669,116.829ZM21.3,86.816l.646,15.6a5.713,5.713,0,0,0,5.241,5.468l40.181,2.83,2.935.367c4.769.611,6.062.786,10.709-1.38,7.669-3.6,29.349-15.933,34.94-23.829a4.682,4.682,0,0,0,.437-2.848,1.415,1.415,0,0,0-.472-.926h0c-2.306-1.537-2.848-1.9-5-.839-1.258.629-5.486,3.319-9.958,6.149C89.1,94.939,83.824,98.171,81.745,98.678c-2.62.664-15.863,1.17-26.5,1.5h-.4a3.127,3.127,0,0,1-3.284-2.8,1.2,1.2,0,0,0-.122-.681,3.808,3.808,0,0,1,.349-3.2,4.437,4.437,0,0,1,3.249-1.59c.926-.14,1.258-.21,1.433-.245a3.493,3.493,0,0,1,.943-.1h4.07c4.036,0,13.207,0,15.391-.245a4.472,4.472,0,0,0,1.205-3.249h0a.3.3,0,0,0-.28-.332c-3.494-.524-8.63-1.17-9.329-1.205H67.28a118.252,118.252,0,0,1-20.964-3.7l-2.638-.839c-4.769-1.52-7.914-2.516-10.482-2.289-1.9.157-2.865.262-3.494.332h-1a29.877,29.877,0,0,0-2.935.7A6.01,6.01,0,0,0,21.3,86.816Zm33.367,7.931ZM28.654,80.038Z" transform="translate(10.147 54.847)" fill="#54215e" stroke="#511f5a" stroke-miterlimit="10" stroke-width="2"/>
      <rect id="Retângulo_102" data-name="Retângulo 102" width="7.198" height="16.998" rx="2.06" transform="translate(47.709 26.992) rotate(-45)" fill="#d8a934" stroke="#cfa338" stroke-miterlimit="10" stroke-width="0.75"/>
      <rect id="Retângulo_103" data-name="Retângulo 103" width="7.198" height="28.092" rx="2.06" transform="translate(88.642)" fill="#d8a934" stroke="#cfa338" stroke-miterlimit="10" stroke-width="0.75"/>
      <rect id="Retângulo_104" data-name="Retângulo 104" width="7.198" height="19.409" rx="2.06" transform="translate(131.41 22.195) rotate(45)" fill="#d8a934" stroke="#cfa338" stroke-miterlimit="10" stroke-width="0.75"/>
      <path id="Caminho_711" data-name="Caminho 711" d="M88.845,101.251l-.157-58.367a3.11,3.11,0,0,0-1.5-2.6L67.06,22.025h0l-.7-.681a3.075,3.075,0,0,0-2.114-.8,3.232,3.232,0,0,0-2.131.8l-.716.664h0L41.257,40.4a3.11,3.11,0,0,0-1.467,2.62h0V72.286h0l.087,29.035v.384a2.568,2.568,0,0,0,.542,1.433h0a3.494,3.494,0,0,0,2.5,1.45h.734a2.673,2.673,0,0,0,.873-.175,3.389,3.389,0,0,0,1.363-.751l17.47-15.967a1.537,1.537,0,0,1,2.044,0l16.806,15.461.1.1a4.105,4.105,0,0,0,2.83,1.24h.245a3.372,3.372,0,0,0,3.494-3.2h0ZM67.183,80.287l-.734-.681a3.214,3.214,0,0,0-4.228,0l-.734.681h0L49.626,91.223a1.59,1.59,0,0,1-2.69-1.013V75.291a3.791,3.791,0,0,1,1.24-2.76L60.4,61.28a2.935,2.935,0,0,0,0-4.42l-.122-.1a3.651,3.651,0,0,0-4.839,0l-6.551,5.957a1.24,1.24,0,0,1-2.1-.786V45.941a3.494,3.494,0,0,1,1.188-2.62l14.43-13.242a2.708,2.708,0,0,1,3.494,0L80.39,43.234a3.494,3.494,0,0,1,1.205,2.62V61.821a1.258,1.258,0,0,1-2.1.8L73,56.72a3.686,3.686,0,0,0-4.857,0l-.122.122a2.935,2.935,0,0,0,0,4.4l12.334,11.2a3.7,3.7,0,0,1,1.258,2.743V90.123a1.59,1.59,0,0,1-2.5,1.1l-11.9-10.8Z" transform="translate(27.976 14.697)" fill="#d8a934" stroke="#cfa338" stroke-miterlimit="10" stroke-width="0.75"/>
    </g>
  </g>
</svg>
