<svg id="Layer_1" data-name="Layer 1" xmlns="http://www.w3.org/2000/svg" width="273.617" height="534" viewBox="0 0 273.617 534">
  <path id="Caminho_692" data-name="Caminho 692" d="M135.38,343V74.16L.96,208.58Z" transform="translate(0.358 27.643)" fill="#d2367e"/>
  <path id="Caminho_693" data-name="Caminho 693" d="M101.4,345.64V76.8L235.82,211.22Z" transform="translate(37.797 28.627)" fill="#d2367e"/>
  <path id="Caminho_694" data-name="Caminho 694" d="M220.308,0,29.88.165l95.708,95.049Z" transform="translate(11.138)" fill="#d2367e"/>
  <path id="Caminho_695" data-name="Caminho 695" d="M124.823,394.819,29.28,299.769V204.72l95.543,95.049Z" transform="translate(10.914 76.31)" fill="#d2367e"/>
  <path id="Caminho_696" data-name="Caminho 696" d="M197.739,75H102.36l95.379,94.226Z" transform="translate(38.155 27.956)" fill="#d2367e"/>
  <path id="Caminho_697" data-name="Caminho 697" d="M67.265,22.8,0,90.065l67.265,66.99L134.53,90.01Zm24.49,54.031A6.342,6.342,0,1,1,98.1,70.489a6.342,6.342,0,0,1-6.342,6.342Z" transform="translate(0 8.499)" fill="#d2367e"/>
  <path id="Caminho_698" data-name="Caminho 698" d="M168.625,23.52,101.36,90.785H235.78ZM142.268,76.563a6.342,6.342,0,1,1,6.342-6.342,6.342,6.342,0,0,1-6.342,6.342Z" transform="translate(37.782 8.767)" fill="#d2367e"/>
  <path id="Caminho_699" data-name="Caminho 699" d="M48.5,370.21v-1.483h4.283v28.443H48.5v-9.609a9.747,9.747,0,0,1-7.3,3.075,11.778,11.778,0,1,1,0-23.556,9.746,9.746,0,0,1,7.3,3.13Zm0,10.213v-3.13a7.852,7.852,0,0,0-1.977-3.624,7.564,7.564,0,0,0-10.543,0,6.864,6.864,0,0,0-2.142,5.107,6.727,6.727,0,0,0,2.141,5.271,7.564,7.564,0,0,0,10.543,0,7.852,7.852,0,0,0,1.977-3.624Z" transform="translate(10.966 136.829)" fill="#d2367e"/>
  <path id="Caminho_700" data-name="Caminho 700" d="M60.061,390.024a8.827,8.827,0,0,1-6.589-2.471A8.566,8.566,0,0,1,51,381.294V368.28h4.283v12.849a4.214,4.214,0,0,0,1.373,3.13,4.365,4.365,0,0,0,3.459,1.373,3.9,3.9,0,0,0,3.13-1.373,4.214,4.214,0,0,0,1.373-3.13V368.28h4.228v13.014a8.456,8.456,0,0,1-8.731,8.731Z" transform="translate(19.009 137.277)" fill="#d2367e"/>
  <path id="Caminho_701" data-name="Caminho 701" d="M87.166,370.195v-1.483h4.283v21.415H87.166v-2.581a9.486,9.486,0,0,1-7.248,3.13,11.778,11.778,0,1,1,0-23.556A10.1,10.1,0,0,1,87.166,370.195Zm0,10.213v-3.13a6.164,6.164,0,0,0-1.977-3.624,6.96,6.96,0,0,0-5.271-2.141,6.6,6.6,0,0,0-5.107,2.142,7.111,7.111,0,0,0-2.306,5.271,6.754,6.754,0,0,0,2.306,5.107,6.6,6.6,0,0,0,5.052,2.142,6.96,6.96,0,0,0,5.271-2.142,5.725,5.725,0,0,0,2.032-3.624Z" transform="translate(25.399 136.844)" fill="#d2367e"/>
  <path id="Caminho_702" data-name="Caminho 702" d="M103.79,372.052a7.1,7.1,0,0,0-3.295-.494,6.6,6.6,0,0,0-5.107,2.142,6.754,6.754,0,0,0-2.306,5.107,6.109,6.109,0,0,0,.659,3.295Zm-7.248,13.178a6.328,6.328,0,0,0,3.954.988,6.96,6.96,0,0,0,5.271-2.142c.165-.165.494-.659,1.153-1.373l4.283,1.647A34.48,34.48,0,0,1,108.9,387.1a11.435,11.435,0,0,1-8.4,3.459,11.078,11.078,0,0,1-8.237-3.459,11.737,11.737,0,0,1,0-16.638A11.078,11.078,0,0,1,100.5,367a11.819,11.819,0,0,1,7.413,2.471l.988.988a14.478,14.478,0,0,1,1.153,1.373l-2.142,2.142Z" transform="translate(33.101 136.799)" fill="#d2367e"/>
  <path id="Caminho_703" data-name="Caminho 703" d="M113,371.379a8.071,8.071,0,0,1,5.93-3.459v4.448a6.589,6.589,0,0,0-3.789,1.483A7.454,7.454,0,0,0,113,378.792v10.982H108.72V368.359H113Z" transform="translate(40.525 137.142)" fill="#d2367e"/>
  <path id="Caminho_704" data-name="Caminho 704" d="M133.16,372.052a5.874,5.874,0,0,0-3.13-.494,6.96,6.96,0,0,0-5.271,2.141,8.237,8.237,0,0,0-1.647,8.4Zm-7.083,13.178a5.724,5.724,0,0,0,3.954.988,7.208,7.208,0,0,0,5.271-2.142,16.412,16.412,0,0,0,.988-1.373l4.283,1.647a16.937,16.937,0,0,1-2.306,2.745,11.078,11.078,0,0,1-8.236,3.459,11.778,11.778,0,1,1,7.248-21.085l.988.988a8.889,8.889,0,0,1,1.373,1.373l-2.306,2.142Z" transform="translate(44.089 136.8)" fill="#d2367e"/>
  <path id="Caminho_705" data-name="Caminho 705" d="M142.4,371.379a8.072,8.072,0,0,1,5.93-3.459v4.448a6.081,6.081,0,0,0-3.624,1.483,7.673,7.673,0,0,0-2.306,4.942v10.982H138.12V368.359H142.4Z" transform="translate(51.484 137.142)" fill="#d2367e"/>
  <path id="Caminho_706" data-name="Caminho 706" d="M162.71,372.052a7.1,7.1,0,0,0-3.295-.494,6.6,6.6,0,0,0-5.107,2.142A6.754,6.754,0,0,0,152,378.806c0,1.812.165,2.746.659,3.295Zm-7.248,13.178a6.328,6.328,0,0,0,3.954.988,6.96,6.96,0,0,0,5.271-2.142c.165-.165.494-.659,1.153-1.373l4.283,1.647a34.49,34.49,0,0,1-2.306,2.746,11.435,11.435,0,0,1-8.4,3.459,11.078,11.078,0,0,1-8.237-3.459,11.737,11.737,0,0,1,0-16.638A11.078,11.078,0,0,1,159.415,367a11.819,11.819,0,0,1,7.413,2.471l.988.988a14.472,14.472,0,0,1,1.153,1.373l-2.141,2.142Z" transform="translate(55.063 136.799)" fill="#d2367e"/>
</svg>
