<svg xmlns="http://www.w3.org/2000/svg" width="376.126" height="1195.391" viewBox="0 0 376.126 1195.391">
  <path id="Caminho_662" data-name="Caminho 662" d="M2793.573,2818.164s5.738,33.2,50.817,67.374,244.319,87.441,300.9,118.3c11.769,6.419,24.3,20.985,24.3,20.985v277.062s-19.851,48.681-75.738,78.6-213.458,63.127-208.314,104.275,110.586,97.728,190.312,128.589c32.129,12.437,92.251,50.8,92.251,50.8l1.6,234.438s-52.083,39.633-75.847,43.954c-56.579,10.287-299.894,71.015-299.894,71.015v-45.161s168.733-56.715,215.025-154.443-214.917-250.25-214.917-250.25V3410.531s330.647-136.653,299.786-198.376-299.861-70.195-299.861-70.195Z" transform="translate(-2793.573 -2818.164)" fill="#481c51"/>
</svg>
